<?xml version="1.0" encoding="UTF-8"?>
<svg id="Layer_1" xmlns="http://www.w3.org/2000/svg" version="1.1" viewBox="0 0 22 22">
  <!-- Generator: Adobe Illustrator 29.8.1, SVG Export Plug-In . SVG Version: 2.1.1 Build 2)  -->
  <path d="M9.3,14.9c.9,0,1.8,0,2.6-.2l3.3-3.3c-1.5.8-3.6,1.2-5.9,1.2s-5.3-.7-6.8-1.8v-3.2c1.7.9,4.1,1.5,6.8,1.5s5.1-.6,6.8-1.5v2.8l1.6-1.6c.2-.2.4-.4.7-.5v-3.7C18.4,2.3,14.3.2,9.3.2S.3,2.3.3,4.8v11.3c0,2.3,3.5,4.2,7.9,4.5v-2.1l.2-.2c-3.8-.2-5.8-1.7-5.8-2.2v-2.5c1.8.9,4.2,1.4,6.8,1.4M9.3,2.5c4.4,0,6.8,1.7,6.8,2.3s-2.4,2.3-6.8,2.3-6.8-1.7-6.8-2.3,2.4-2.3,6.8-2.3M17.4,12.5l2.3,2.3-6.9,6.9h-2.3v-2.3l6.9-6.9M21.6,12.9l-1.1,1.1-2.3-2.3,1.1-1.1c.2-.2.6-.2.8,0l1.5,1.5c.2.2.2.6,0,.8h0Z" fill="#00c7cf"/>
</svg>